<svg xmlns:dc="http://purl.org/dc/elements/1.1/" xmlns:cc="http://creativecommons.org/ns#" xmlns:rdf="http://www.w3.org/1999/02/22-rdf-syntax-ns#" xmlns:svg="http://www.w3.org/2000/svg" xmlns="http://www.w3.org/2000/svg" xmlns:sodipodi="http://sodipodi.sourceforge.net/DTD/sodipodi-0.dtd" xmlns:inkscape="http://www.inkscape.org/namespaces/inkscape" version="1.1" x="0px" y="0px" viewBox="0 -4 100 101"><g transform="translate(0,-952.36218)"><path style="text-indent:0;text-transform:none;direction:ltr;block-progression:tb;baseline-shift:baseline;color:#000000;enable-background:accumulate;" d="m 49.749983,959.37142 a 2.0001999,2.0001999 0 0 0 -0.8438,0.3125 c -10.1957,6.69306 -20.3645,10.46939 -30.5937,12.71876 a 2.0001999,2.0001999 0 0 0 -1.4687,1.375 c -4.0858,13.38467 -3.8819,28.26932 1.3124,41.34372 5.1944,13.0744 15.4619,24.3262 31.1563,30.1249 a 2.0001999,2.0001999 0 0 0 1.375,0 c 15.6944,-5.7987 25.9618,-17.0505 31.1563,-30.1249 5.1944,-13.0744 5.3982,-27.95905 1.3124,-41.34372 a 2.0001999,2.0001999 0 0 0 -1.4687,-1.375 c -10.2292,-2.24937 -20.398,-6.0257 -30.5937,-12.71876 a 2.0001999,2.0001999 0 0 0 -1.3438,-0.3125 z m 0.25,4.3125 c 9.8582,6.27873 19.7326,10.03165 29.5625,12.31251 3.5089,12.28178 3.2525,25.85127 -1.4375,37.65627 -4.7429,11.9378 -13.8815,22.0475 -28.125,27.5311 -14.2435,-5.4836 -23.3821,-15.5933 -28.125,-27.5311 -4.69,-11.805 -4.9464,-25.37449 -1.4375,-37.65627 9.8299,-2.28086 19.7043,-6.03379 29.5625,-12.31251 z" fill="#000000" fill-opacity="1" stroke="none" marker="none" visibility="visible" display="inline" overflow="visible"/></g></svg>
