<svg xmlns="http://www.w3.org/2000/svg" xmlns:xlink="http://www.w3.org/1999/xlink" version="1.1" x="0px" y="0px" viewBox="20 20 60 60" enable-background="new 0 0 100 100" xml:space="preserve"><path  d="M75.065,26.407l-0.874,0.174c-3.867,0.772-6.549,1.103-8.972,1.103c-4.859,0-9.13-1.372-14.738-4.737  L50,22.657l-0.481,0.289c-5.608,3.365-9.879,4.737-14.738,4.737c-2.423,0-5.104-0.33-8.972-1.103l-0.868-0.174l-0.224,0.858  c-0.077,0.301-1.904,7.452-1.904,15.234c0,23.097,17.43,34.688,27.188,34.688S77.188,65.597,77.188,42.5  c0-7.645-1.825-14.925-1.904-15.23L75.065,26.407z M50,75.312c-9.084,0-25.312-10.965-25.312-32.812  c0-6.012,1.163-11.781,1.643-13.907c3.526,0.674,6.092,0.966,8.45,0.966c3.144,0,6.042-0.527,9.143-1.718  c0.22,1.233,0.481,2.252,0.722,3.169c0.373,1.429,0.668,2.559,0.668,3.99c0,0.643-0.32,1.737-0.661,2.898  c-0.54,1.848-1.214,4.146-1.214,6.477c0,0.519,0.419,0.938,0.938,0.938s0.938-0.419,0.938-0.938c0-2.062,0.604-4.127,1.139-5.949  c0.396-1.346,0.734-2.509,0.736-3.418c1.697,0.926,3.633,0.93,6.562,0.93c0.519,0,0.938-0.419,0.938-0.938s-0.419-0.938-0.938-0.938  c-3.699,0-5.233,0-6.83-1.595c-0.128-0.638-0.287-1.266-0.461-1.932c-0.257-0.979-0.537-2.09-0.758-3.446  c1.369-0.621,2.788-1.36,4.299-2.248c5.691,3.345,10.135,4.717,15.22,4.717c2.358,0,4.922-0.29,8.448-0.966  c0.479,2.15,1.645,7.995,1.645,13.907C75.312,64.348,59.084,75.312,50,75.312z"/><path  d="M57.5,58.438h-15c-0.519,0-0.938,0.419-0.938,0.938s0.419,0.938,0.938,0.938h8.438v2.812  c0,2.067,1.681,3.75,3.75,3.75s3.75-1.683,3.75-3.75v-3.75C58.438,58.856,58.019,58.438,57.5,58.438z M54.688,65  c-1.033,0-1.875-0.841-1.875-1.875v-2.812h3.75v2.812C56.562,64.159,55.721,65,54.688,65z"/><path  d="M41.837,54.413c0.184,0.183,0.423,0.274,0.663,0.274s0.479-0.092,0.663-0.274  c0.366-0.366,0.366-0.96,0-1.326l-1.212-1.212l1.212-1.212c0.366-0.366,0.366-0.96,0-1.326s-0.96-0.366-1.326,0l-1.212,1.212  l-1.212-1.212c-0.366-0.366-0.96-0.366-1.326,0s-0.366,0.96,0,1.326l1.212,1.212l-1.212,1.212c-0.366,0.366-0.366,0.96,0,1.326  c0.184,0.183,0.423,0.274,0.663,0.274s0.479-0.092,0.663-0.274l1.212-1.212L41.837,54.413z"/><path  d="M61.913,49.337c-0.366-0.366-0.96-0.366-1.326,0l-1.212,1.212l-1.212-1.212c-0.366-0.366-0.96-0.366-1.326,0  s-0.366,0.96,0,1.326l1.212,1.212l-1.212,1.212c-0.366,0.366-0.366,0.96,0,1.326c0.184,0.183,0.423,0.274,0.663,0.274  s0.479-0.092,0.663-0.274l1.212-1.212l1.212,1.212c0.184,0.183,0.423,0.274,0.663,0.274s0.479-0.092,0.663-0.274  c0.366-0.366,0.366-0.96,0-1.326l-1.212-1.212l1.212-1.212C62.279,50.297,62.279,49.703,61.913,49.337z"/></svg>