<svg xmlns="http://www.w3.org/2000/svg" data-name="Layer 1" viewBox="1 4 60 55" x="0px" y="0px"><title>Character-17MAR</title><path d="M38.62,31.5V29.62L41,29.27a.85.85,0,1,0-.25-1.68l-6.16.91a.85.85,0,0,0,.12,1.69h.13l2.11-.31V31.5a.85.85,0,0,0,1.7,0Z"/><path d="M51.16,25.62A1.42,1.42,0,0,0,49.69,25l-.79.15c-.16-8.12-1.48-12.63-4-13.77a3.37,3.37,0,0,0-3.09.25c-3.35-2.44-9.92-3.38-13.5-2.51-7,1.71-9.92,9.35-12.25,15.49l-.26.67L14.31,25a1.43,1.43,0,0,0-1.43,2.24l2.63,3.72L13.72,50.14a.85.85,0,0,0,1.13.88l3.23-1.14,1.37,3.49A.85.85,0,0,0,21,53.5l1.18-1.94,2.41,3.17a.85.85,0,0,0,.68.33.85.85,0,0,0,.85-.85V49.07a4.54,4.54,0,0,0,2.18.59h7.44a4.53,4.53,0,0,0,2-.48v5.19a.85.85,0,0,0,1.53.51l2.41-3.17,1.18,1.94a.85.85,0,0,0,1.52-.13L45.71,50l3.23,1.14a.85.85,0,0,0,1.13-.85l-1.14-20,2.2-3.11A1.43,1.43,0,0,0,51.16,25.62Zm-7-12.71c.86.39,2.87,2.4,3,12.54l-3.81.72a7.07,7.07,0,0,1-.74-2.25l1.52.46.15,0a.5.5,0,0,0,.15-1l-1.89-.58v-.66l1.59.51.15,0a.5.5,0,0,0,.15-1l-1.89-.61v-8A1.75,1.75,0,0,1,44.17,12.91ZM17.61,25.2c2.2-5.77,4.93-12.95,11.07-14.44,3.18-.78,9.39.17,12.21,2.31v.4l-8.17-1.2a.5.5,0,0,0-.15,1l8.32,1.22v.37l-8.22-.38a.5.5,0,1,0,0,1l8.27.38v.62H32.63a.5.5,0,0,0,0,1h8.24v.9H33a9.11,9.11,0,0,0-6.48,2.69L21.3,26.3l-3.84-.72Zm2.69,2.64-.85,1.52h0l-1-.86a.5.5,0,0,0-.65.76l1.64,1.41,0,2.87-4.79-6.77ZM24.39,51.7l-1.64-2.16a.84.84,0,0,0-.72-.33.85.85,0,0,0-.68.41l-.94,1.54-1-2.66A.85.85,0,0,0,18.29,48l-2.75,1L17,33.07l.78,1.1L17,44.94a.5.5,0,0,0,.46.53h0A.5.5,0,0,0,18,45l.68-9.55.71,1,0,4.28a4.48,4.48,0,0,0,.89,2.67v4.1a.5.5,0,0,0,1,0v-3l.61.61V48.2a.5.5,0,0,0,1,0V46.14l1.51,1.52s0,0,0,.07ZM28.27,48a2.85,2.85,0,0,1-2-.83l-4.35-4.38a2.8,2.8,0,0,1-.82-2l.06-11,1.12-2.06,5.46-5.47A7.42,7.42,0,0,1,33,20.07h7.86V22.9a8.78,8.78,0,0,0,1.2,4.43l.81,1.38v12a2.81,2.81,0,0,1-.82,2l-4.35,4.38a2.85,2.85,0,0,1-2,.83Zm20,1.18-2.79-1a.85.85,0,0,0-1.07.49l-1,2.66-.94-1.54a.85.85,0,0,0-.68-.41.84.84,0,0,0-.72.33L39.4,51.84v-4l1.17-1.17V48.2a.5.5,0,0,0,1,0V45.67l.61-.61v2.46a.5.5,0,0,0,1,0V44l.1-.1a4.5,4.5,0,0,0,1.32-3.19V36.46l.77-1.08v9a.5.5,0,0,0,1,0V34l1-1.41ZM44.59,33.52V30.63l1.59-1.36a.5.5,0,0,0-.65-.76l-.94.81V28.26l-.31-.53,5.08-1Z"/><path d="M29.58,30.18h.13a.85.85,0,0,0,.12-1.69l-6.16-.91a.85.85,0,0,0-.25,1.68l2.35.35V31.5a.85.85,0,0,0,1.7,0V29.87Z"/><path d="M33.28,38a.5.5,0,1,0,.8-.6l-.37-.5a.5.5,0,1,0-.8.6Z"/><path d="M30.15,36.94l-.37.5a.5.5,0,1,0,.8.6l.38-.5a.5.5,0,1,0-.8-.6Z"/><path d="M33.38,42.17a2,2,0,0,1-2.79,0,.5.5,0,1,0-.71.7,3,3,0,0,0,4.21,0,.5.5,0,0,0-.71-.71Z"/><path d="M35.47,40.82l-2.35-.65a1.49,1.49,0,0,0-.79.1l-.2.08a.53.53,0,0,1-.39,0l-.25-.09a1.52,1.52,0,0,0-.95,0l-2,.58a.5.5,0,0,0,.14,1l.14,0,2-.58a.54.54,0,0,1,.33,0l.25.09a1.55,1.55,0,0,0,1.1,0l.19-.08a.78.78,0,0,1,.21,0l2.28.63a.5.5,0,1,0,.27-1Z"/><path d="M33.53,45.3H30.59a.5.5,0,0,0,0,1h2.94a.5.5,0,0,0,0-1Z"/></svg>
