<svg class="svgfill" xmlns="http://www.w3.org/2000/svg" xmlns:xlink="http://www.w3.org/1999/xlink" xml:space="preserve" version="1.1" style="shape-rendering:geometricPrecision;text-rendering:geometricPrecision;image-rendering:optimizeQuality;" viewBox="0 0 333 290" x="0px" y="0px" fill-rule="evenodd" clip-rule="evenodd"><g><path class="svgfill" d="M84 291l0 -20 -65 0 0 -47c0,-45 49,-76 89,-54 16,-16 37,-25 59,-25 22,0 42,9 58,25 40,-21 89,8 89,54l0 47 -65 0 0 20 -165 0zm0 -30l0 -34c0,-18 7,-36 18,-50 -34,-15 -73,10 -73,47l0 37 55 0zm148 -84c10,14 17,32 17,50l0 34 55 0 0 -37c0,-37 -39,-62 -72,-47zm21 -91c20,0 37,17 37,37 0,21 -17,37 -37,37 -20,0 -37,-16 -37,-37 0,-20 17,-37 37,-37zm0 10c-15,0 -27,12 -27,27 0,15 12,27 27,27 15,0 27,-12 27,-27 0,-15 -12,-27 -27,-27zm-173 -10c21,0 37,17 37,37 0,21 -16,37 -37,37 -20,0 -37,-16 -37,-37 0,-20 17,-37 37,-37zm0 10c-15,0 -27,12 -27,27 0,15 12,27 27,27 15,0 27,-12 27,-27 0,-15 -12,-27 -27,-27zm18 181l138 0 0 -50c0,-37 -31,-68 -69,-68 -19,0 -36,7 -49,20 -12,12 -20,30 -20,48l0 50zm69 -234c27,0 49,22 49,49 0,28 -22,50 -49,50 -28,0 -50,-22 -50,-50 0,-27 22,-49 50,-49zm0 13c-20,0 -37,16 -37,36 0,20 17,37 37,37 20,0 36,-17 36,-37 0,-20 -16,-36 -36,-36z"/></g></svg>
