<svg xmlns:dc="http://purl.org/dc/elements/1.1/" xmlns:cc="http://creativecommons.org/ns#" xmlns:rdf="http://www.w3.org/1999/02/22-rdf-syntax-ns#" xmlns:svg="http://www.w3.org/2000/svg" xmlns="http://www.w3.org/2000/svg" xmlns:sodipodi="http://sodipodi.sourceforge.net/DTD/sodipodi-0.dtd" xmlns:inkscape="http://www.inkscape.org/namespaces/inkscape" version="1.1" x="0px" y="0px" viewBox="0 0 100 100"><g transform="translate(0,-952.36218)"><path style="" d="M 48.65625 9.6875 L 24.875 17.4375 L 10.15625 37.65625 L 10.15625 62.6875 L 24.875 82.90625 L 48.65625 90.65625 L 72.4375 82.90625 L 87.15625 62.6875 L 87.15625 37.65625 L 72.4375 17.4375 L 48.65625 9.6875 z M 48.5 12 L 69.75 18.9375 L 61.625 30.21875 L 35.34375 30.21875 L 27.21875 18.9375 L 48.5 12 z M 71.8125 20.375 L 84.9375 38.5 L 84.78125 60.875 L 71.5625 56.5625 L 63.5625 31.53125 L 71.8125 20.375 z M 25.71875 20.625 L 33.84375 31.875 C 31.084032 40.18563 28.322219 48.5018 25.5625 56.8125 L 12.3125 60.96875 L 12.40625 38.59375 L 25.71875 20.625 z M 35.9375 32.5625 L 61.375 32.5625 L 69.25 56.75 L 48.65625 71.71875 L 28.0625 56.75 L 35.9375 32.5625 z M 71 58.71875 C 75.398858 60.16135 79.788641 61.58855 84.1875 63.03125 L 71.09375 81.1875 C 64.000663 83.4785 56.905587 85.7715 49.8125 88.0625 L 49.75 74.15625 C 56.83087 69.00415 63.919131 63.87075 71 58.71875 z M 26.28125 58.78125 L 47.46875 74.28125 L 47.375 88.1875 C 40.284381 85.8693 33.184369 83.53695 26.09375 81.21875 C 21.751453 75.16035 17.404798 69.1209 13.0625 63.0625 L 26.28125 58.78125 z " transform="translate(0,952.36218)" fill="#000000" stroke="none"/></g></svg>