<svg xmlns="http://www.w3.org/2000/svg" xmlns:xlink="http://www.w3.org/1999/xlink" xml:space="preserve" version="1.1" style="shape-rendering:geometricPrecision;text-rendering:geometricPrecision;image-rendering:optimizeQuality;" viewBox="0 0 847 874" x="0px" y="0px" fill-rule="evenodd" clip-rule="evenodd"><defs><style type="text/css">
   
    .fil0 {fill:black}
   
  </style></defs><g><path class="fil0" d="M193 26l461 0c92,0 167,75 167,167l0 461c0,92 -75,167 -167,167l-461 0c-92,0 -167,-75 -167,-167l0 -461c0,-92 75,-167 167,-167zm0 83l461 0c46,0 83,38 83,84l0 461c0,46 -37,83 -83,83l-461 0c-46,0 -84,-37 -84,-83l0 -461c0,-46 38,-84 84,-84z"/></g></svg>